HIERARCHY
ROOT Hips
{
 OFFSET 0.000000 0.000000 0.000000
 CHANNELS 6 Xposition Yposition Zposition Yrotation Xrotation Zrotation
 JOINT Chest
 {
  OFFSET 0.000000 10.101222 -0.056779
  CHANNELS 3 Yrotation Xrotation Zrotation
  JOINT Chest2
  {
   OFFSET 0.000000 8.297218 0.103137
   CHANNELS 3 Yrotation Xrotation Zrotation
   JOINT Chest3
   {
    OFFSET 0.000000 7.493411 0.000000
    CHANNELS 3 Yrotation Xrotation Zrotation
    JOINT Chest4
    {
     OFFSET 0.000000 7.493411 0.000000
     CHANNELS 3 Yrotation Xrotation Zrotation
     JOINT Neck
     {
      OFFSET 0.000000 10.747351 0.000000
      CHANNELS 3 Yrotation Xrotation Zrotation
      JOINT Head
      {
       OFFSET 0.000000 7.717153 0.188667
       CHANNELS 3 Yrotation Xrotation Zrotation
       End Site
       {
        OFFSET 0.000000 14.853047 0.068983
       }
      }
     }
     JOINT RightCollar
     {
      OFFSET -2.766550 6.061559 0.000000
      CHANNELS 3 Yrotation Xrotation Zrotation
      JOINT RightShoulder
      {
       OFFSET -14.830725 0.000000 0.000000
       CHANNELS 3 Yrotation Xrotation Zrotation
       JOINT RightElbow
       {
        OFFSET -28.959634 0.000000 0.000000
        CHANNELS 3 Yrotation Xrotation Zrotation
        JOINT RightWrist
        {
         OFFSET -23.742631 0.000000 0.003006
         CHANNELS 3 Yrotation Xrotation Zrotation
         End Site
         {
          OFFSET -17.766445 0.000000 0.000000
         }
        }
       }
      }
     }
     JOINT LeftCollar
     {
      OFFSET 2.766550 6.061559 0.000000
      CHANNELS 3 Yrotation Xrotation Zrotation
      JOINT LeftShoulder
      {
       OFFSET 14.830725 0.000000 0.000000
       CHANNELS 3 Yrotation Xrotation Zrotation
       JOINT LeftElbow
       {
        OFFSET 28.959634 0.000000 0.000000
        CHANNELS 3 Yrotation Xrotation Zrotation
        JOINT LeftWrist
        {
         OFFSET 23.742631 0.000000 0.003006
         CHANNELS 3 Yrotation Xrotation Zrotation
         End Site
         {
          OFFSET 17.766445 0.000000 0.000000
         }
        }
       }
      }
     }
    }
   }
  }
 }
 JOINT RightHip
 {
  OFFSET -8.655184 0.278217 0.028389
  CHANNELS 3 Yrotation Xrotation Zrotation
  JOINT RightKnee
  {
   OFFSET 0.000000 -47.671744 -0.001158
   CHANNELS 3 Yrotation Xrotation Zrotation
   JOINT RightAnkle
   {
    OFFSET 0.000000 -42.492694 -0.036854
    CHANNELS 3 Yrotation Xrotation Zrotation
    JOINT RightToe
    {
     OFFSET 0.000000 -5.741774 14.901460
     CHANNELS 3 Yrotation Xrotation Zrotation
     End Site
     {
      OFFSET 0.000000 -1.778666 8.212983
     }
    }
   }
  }
 }
 JOINT LeftHip
 {
  OFFSET 8.655184 0.278217 0.028389
  CHANNELS 3 Yrotation Xrotation Zrotation
  JOINT LeftKnee
  {
   OFFSET 0.000000 -47.671744 -0.001158
   CHANNELS 3 Yrotation Xrotation Zrotation
   JOINT LeftAnkle
   {
    OFFSET 0.000000 -42.492694 -0.036854
    CHANNELS 3 Yrotation Xrotation Zrotation
    JOINT LeftToe
    {
     OFFSET 0.000000 -5.741774 14.901460
     CHANNELS 3 Yrotation Xrotation Zrotation
     End Site
     {
      OFFSET 0.000000 -1.778666 8.212983
     }
    }
   }
  }
 }
}
MOTION
Frames: 16
Frame Time: 0.004167
0.000000 95.428143 0.000000 0.000000 -5.826342 0.000000 0.000000 11.116423 0.000000 0.000000 -5.290081 0.000000 0.000000 0.000000 0.000000 0.000000 0.000000 0.000000 0.000000 12.665069 0.000000 0.000000 0.575450 0.000000 0.000000 0.000000 0.000000 0.000000 0.000000 0.000000 2.337306 0.000000 0.000000 -2.337306 0.000000 0.000000 0.000000 0.000000 0.000000 0.000000 0.000000 0.000000 -2.337306 0.000000 0.000000 2.337306 0.000000 0.000000 0.000000 8.578828 0.000000 0.000000 1.905768 0.000000 0.000000 -4.658254 0.000000 0.000000 0.000000 0.000000 0.000000 8.578828 0.000000 0.000000 1.905768 0.000000 0.000000 -4.658254 0.000000 0.000000 0.000000 0.000000
490.954634 95.717413 787.698956 177.958406 -13.820425 -0.711226 -1.948657 13.511213 -1.783975 -0.757733 -1.627998 -0.675202 -0.758976 3.661620 -0.745206 -0.564568 2.747149 -0.554163 8.448183 17.698064 -2.728736 16.469794 -2.490430 -7.821527 3.927109 -6.177535 -4.707263 7.227655 -16.644756 72.418561 115.400673 -8.157804 12.285769 -16.907661 -0.207989 -0.362023 -0.254998 -1.068411 -4.895551 -3.194285 4.099697 -76.777688 -12.023183 -37.567446 -89.038398 -19.217139 -31.480773 5.007628 2.091103 -2.519811 -1.833202 -5.454003 32.357198 5.902126 -5.364028 -13.912781 -1.667186 -0.012174 0.064250 -0.599466 2.774449 21.777724 -4.540700 -4.468135 -6.175891 -4.164743 13.909020 -6.996059 2.539763 0.000000 0.000000 0.000000
490.993963 95.723848 787.615431 177.974923 -13.801307 -0.765007 -1.931328 13.503412 -1.776880 -0.750520 -1.631571 -0.673118 -0.751747 3.658056 -0.742455 -0.559169 2.744464 -0.552148 8.422919 17.670339 -2.715027 16.422237 -2.547336 -7.792468 3.914718 -6.186300 -4.693318 7.250128 -16.693275 72.389879 115.387653 -8.106749 12.278011 -17.049013 -0.161420 -0.371706 -0.265111 -1.054367 -4.887910 -3.258200 4.134118 -76.864753 -12.224944 -37.763945 -89.031731 -19.280673 -31.525881 5.202765 2.255121 -2.321677 -1.657216 -5.321382 31.436779 6.053028 -5.323527 -13.769414 -1.433987 -0.006895 0.044914 -0.422641 2.843403 21.774823 -4.450453 -4.495911 -6.092939 -4.154911 13.881164 -7.067361 2.539050 0.000000 0.000000 0.000000
491.035363 95.730616 787.531509 177.990343 -13.784674 -0.814645 -1.914735 13.495863 -1.771752 -0.743516 -1.635019 -0.671860 -0.744727 3.654616 -0.740549 -0.553923 2.741873 -0.550766 8.397948 17.642542 -2.701299 16.375197 -2.604322 -7.763448 3.904207 -6.195025 -4.678187 7.275115 -16.743960 72.358640 115.375757 -8.060653 12.270686 -17.182677 -0.118199 -0.385001 -0.271970 -1.041644 -4.878329 -3.319044 4.162391 -76.950160 -12.425011 -37.956974 -89.029302 -19.347174 -31.567847 5.397608 2.401566 -2.124020 -1.470431 -5.209601 30.553781 6.145300 -5.330510 -13.574542 -1.327126 -0.002859 0.023049 -0.220681 2.899654 21.771268 -4.367151 -4.512814 -6.005001 -4.145931 13.854613 -7.140118 2.536523 0.000000 0.000000 0.000000
491.078992 95.737852 787.447484 178.004718 -13.770841 -0.859674 -1.899121 13.488716 -1.768875 -0.736811 -1.638274 -0.671538 -0.738008 3.651370 -0.739607 -0.548895 2.739430 -0.550104 8.373405 17.614352 -2.687535 16.328956 -2.661965 -7.734525 3.895915 -6.203673 -4.661665 7.303529 -16.796536 72.324511 115.365458 -8.019236 12.263782 -17.307784 -0.077659 -0.401914 -0.274889 -1.030349 -4.866595 -3.374637 4.182131 -77.033362 -12.621176 -38.143686 -89.032312 -19.417045 -31.605808 5.591069 2.528304 -1.928790 -1.271434 -5.124718 29.719486 6.171485 -5.391036 -13.321114 -1.373429 0.000000 0.000000 0.000000 2.941702 21.766871 -4.291756 -4.517285 -5.911457 -4.137658 13.829128 -7.214217 2.531828 0.000000 0.000000 0.000000
491.125265 95.745166 787.362108 178.018239 -13.761445 -0.898875 -1.884309 13.482412 -1.769284 -0.730263 -1.641135 -0.672619 -0.731447 3.648518 -0.740082 -0.543977 2.737284 -0.550503 8.348951 17.586333 -2.673032 16.282593 -2.719386 -7.704227 3.889283 -6.211698 -4.643045 7.334812 -16.850584 72.287261 115.357483 -7.983893 12.256217 -17.432994 -0.037268 -0.422035 -0.274058 -1.019659 -4.850124 -3.433727 4.195799 -77.116489 -12.813415 -38.330816 -89.043192 -19.495269 -31.641753 5.793592 2.635834 -1.728555 -1.055753 -5.054947 28.911875 6.129420 -5.518882 -12.975303 -1.594610 0.002259 -0.032597 0.273488 2.966221 21.765523 -4.225139 -4.508162 -5.815738 -4.131883 13.805049 -7.289194 2.526390 0.000000 0.000000 0.000000
491.174275 95.752163 787.274269 178.030985 -13.757185 -0.931984 -1.869916 13.477077 -1.773327 -0.723683 -1.643547 -0.675277 -0.724854 3.646114 -0.742133 -0.539025 2.735476 -0.552083 8.324221 17.559197 -2.657366 16.235212 -2.775392 -7.671557 3.883584 -6.218796 -4.622103 7.367624 -16.906132 72.247097 115.351794 -7.955806 12.247308 -17.564785 0.003839 -0.445100 -0.270346 -1.008943 -4.827500 -3.504243 4.207550 -77.201490 -13.004120 -38.525798 -89.062122 -19.584569 -31.677748 6.013014 2.726919 -1.516343 -0.822172 -4.983295 28.105302 6.028035 -5.714581 -12.522191 -1.976784 0.004240 -0.081446 0.628437 2.972733 21.769981 -4.166783 -4.486426 -5.720694 -4.129913 13.782852 -7.364872 2.521504 0.000000 0.000000 0.000000
491.225694 95.758969 787.184459 178.042827 -13.756977 -0.959969 -1.855878 13.472382 -1.780252 -0.717089 -1.645662 -0.679187 -0.718246 3.644008 -0.745433 -0.534055 2.733893 -0.554599 8.299309 17.532844 -2.640931 16.187128 -2.830088 -7.637281 3.878903 -6.225295 -4.599354 7.401708 -16.963570 72.204339 115.347711 -7.934386 12.237637 -17.699008 0.043832 -0.471335 -0.264090 -0.998596 -4.800265 -3.582775 4.217553 -77.287550 -13.194645 -38.726852 -89.086987 -19.681913 -31.713082 6.244305 2.802784 -1.294775 -0.574180 -4.908227 27.305503 5.876645 -5.965026 -11.983607 -2.493438 0.006001 -0.142367 1.050345 2.964001 21.778342 -4.115591 -4.453727 -5.624829 -4.130874 13.762511 -7.441575 2.516612 0.000000 0.000000 0.000000
491.279196 95.765709 787.093171 178.053637 -13.759731 -0.983796 -1.842134 13.467997 -1.789312 -0.710497 -1.647628 -0.684023 -0.711642 3.642050 -0.749660 -0.529081 2.732422 -0.557810 8.274312 17.507170 -2.624123 16.138663 -2.883586 -7.602170 3.875325 -6.231526 -4.575313 7.436808 -17.023291 72.159310 115.344558 -7.919045 12.227787 -17.831509 0.080889 -0.500970 -0.255626 -0.989015 -4.769965 -3.665912 4.225979 -77.373855 -13.386332 -38.932191 -89.115689 -19.784231 -31.747100 6.482420 2.864622 -1.066462 -0.315284 -4.828655 26.518114 5.684394 -6.257544 -11.381660 -3.117827 0.007764 -0.211078 1.524742 2.942781 21.788686 -4.070469 -4.411715 -5.526653 -4.133887 13.744002 -7.519623 2.511153 0.000000 0.000000 0.000000
491.334453 95.772511 787.000897 178.063283 -13.764362 -1.004431 -1.828623 13.463591 -1.799759 -0.703928 -1.649598 -0.689460 -0.705060 3.640088 -0.754489 -0.524120 2.730949 -0.561473 8.249327 17.482072 -2.607337 16.090139 -2.935996 -7.566991 3.872936 -6.237814 -4.550496 7.472670 -17.085689 72.112331 115.341658 -7.909198 12.218341 -17.958133 0.113204 -0.534232 -0.245294 -0.980592 -4.738142 -3.750243 4.233011 -77.459589 -13.580513 -39.140020 -89.146153 -19.888418 -31.779202 6.722293 2.913591 -0.834014 -0.048998 -4.743938 25.748676 5.460272 -6.579592 -10.738553 -3.822879 0.009830 -0.283319 2.037162 2.911828 21.799083 -4.030330 -4.362032 -5.424675 -4.138069 13.727300 -7.599340 2.504568 0.000000 0.000000 0.000000
491.391137 95.779500 786.908132 178.071634 -13.769780 -1.022839 -1.815285 13.458833 -1.810845 -0.697399 -1.651721 -0.695170 -0.698519 3.637973 -0.759597 -0.519188 2.729360 -0.565344 8.224452 17.457445 -2.590967 16.041880 -2.987434 -7.532515 3.871821 -6.244488 -4.525418 7.509039 -17.151158 72.063724 115.338332 -7.904265 12.209883 -18.074715 0.138982 -0.571354 -0.233433 -0.973713 -4.706344 -3.832357 4.238841 -77.543933 -13.778505 -39.348535 -89.176324 -19.991336 -31.808852 6.958842 2.950814 -0.600041 0.221161 -4.653863 25.002630 5.213137 -6.918510 -10.076428 -4.581126 0.012501 -0.354941 2.573123 2.873894 21.807595 -3.994082 -4.306320 -5.317407 -4.142532 13.712384 -7.681045 2.496295 0.000000 -0.000000 0.000000
491.448921 95.786802 786.815367 178.078557 -13.774899 -1.039983 -1.802062 13.453391 -1.821825 -0.690931 -1.654150 -0.700831 -0.692037 3.635551 -0.764660 -0.514301 2.727541 -0.569181 8.199788 17.433185 -2.575406 15.994214 -3.038019 -7.499509 3.872065 -6.251875 -4.500595 7.545659 -17.220095 72.013809 115.333902 -7.903667 12.202999 -18.177087 0.156445 -0.612575 -0.220382 -0.968764 -4.676117 -3.908843 4.243670 -77.626067 -13.981610 -39.555927 -89.204172 -20.089816 -31.835580 7.186966 2.977379 -0.367155 0.491676 -4.558620 24.285316 4.951736 -7.261335 -9.417240 -5.364644 0.016011 -0.421962 3.118112 2.831733 21.812280 -3.960628 -4.246216 -5.203366 -4.146383 13.699232 -7.765063 2.485770 0.000000 0.000000 0.000000
491.507478 95.794544 786.723095 178.083917 -13.778628 -1.056827 -1.788895 13.446928 -1.831954 -0.684543 -1.657036 -0.706116 -0.685635 3.632671 -0.769355 -0.509477 2.725378 -0.572743 8.175434 17.409184 -2.561048 15.947469 -3.087872 -7.468745 3.873752 -6.260299 -4.476543 7.582276 -17.292897 71.962909 115.327687 -7.906830 12.198276 -18.261073 0.163834 -0.658144 -0.206480 -0.966124 -4.649008 -3.976290 4.247711 -77.705168 -14.191117 -39.760376 -89.227693 -20.180665 -31.858977 7.401552 2.994337 -0.137977 0.759035 -4.458774 23.601976 4.684731 -7.594678 -8.782673 -6.145030 0.020462 -0.480590 3.657588 2.788099 21.811193 -3.928866 -4.183353 -5.081070 -4.148723 13.687825 -7.851712 2.472429 0.000000 -0.000000 0.000000
491.566480 95.802853 786.631810 178.087581 -13.779880 -1.074334 -1.775728 13.439112 -1.840486 -0.678255 -1.660532 -0.710702 -0.679333 3.629182 -0.773360 -0.504733 2.722757 -0.575788 8.151493 17.385336 -2.548286 15.901979 -3.137118 -7.440991 3.876969 -6.270087 -4.453779 7.618637 -17.369962 71.911344 115.319006 -7.913184 12.196303 -18.322489 0.159407 -0.708328 -0.192067 -0.966170 -4.626567 -4.031290 4.251180 -77.780411 -14.408295 -39.960051 -89.244917 -20.260671 -31.878699 7.597474 3.002705 0.084866 1.019734 -4.355217 22.957753 4.420723 -7.904668 -8.194091 -6.893405 0.025780 -0.527225 4.176988 2.745749 21.802390 -3.897688 -4.119361 -4.949044 -4.148649 13.678146 -7.941316 2.455704 0.000000 0.000000 0.000000
491.625599 95.811854 786.542003 178.089415 -13.777566 -1.093467 -1.762505 13.429605 -1.846679 -0.672088 -1.664789 -0.714263 -0.673151 3.624930 -0.776351 -0.500086 2.719563 -0.578072 8.128068 17.361532 -2.537512 15.858077 -3.185882 -7.417017 3.881801 -6.281562 -4.432819 7.654485 -17.451692 71.859437 115.307173 -7.922162 12.197673 -18.357144 0.141446 -0.763420 -0.177478 -0.969276 -4.610342 -4.070435 4.254300 -77.850962 -14.634394 -40.153115 -89.253906 -20.326616 -31.894458 7.769596 3.003464 0.298735 1.270274 -4.249131 22.357697 4.168267 -8.176968 -7.672544 -7.580465 0.031675 -0.558427 4.661739 2.707437 21.783922 -3.865982 -4.055860 -4.805814 -4.145253 13.670178 -8.034193 2.435026 0.000000 0.000000 0.000000
491.684509 95.821674 786.454169 178.089281 -13.770598 -1.115190 -1.749171 13.418072 -1.849789 -0.666062 -1.669962 -0.716476 -0.667111 3.619763 -0.778007 -0.495554 2.715681 -0.579356 8.105263 17.337664 -2.529116 15.816101 -3.234295 -7.397593 3.888336 -6.295047 -4.414179 7.689568 -17.538487 71.807510 115.291502 -7.933199 12.202981 -18.360838 0.108251 -0.823745 -0.163047 -0.975812 -4.601884 -4.090319 4.257297 -77.915987 -14.870646 -40.337715 -89.252766 -20.375284 -31.906018 7.912776 2.997564 0.500977 1.507173 -4.141927 21.806773 3.935893 -8.396860 -7.238829 -8.176576 0.037635 -0.570874 5.097278 2.675914 21.753842 -3.832636 -3.994467 -4.649911 -4.137620 13.663908 -8.130663 2.409825 0.000000 -0.000000 0.000000
